<?xml version="1.0" standalone="no"?>
<!DOCTYPE svg PUBLIC "-//W3C//DTD SVG 1.1//EN" "http://www.w3.org/Graphics/SVG/1.1/DTD/svg11.dtd" >
<svg xmlns="http://www.w3.org/2000/svg">
<metadata></metadata>
<defs>
<font id="proxima_nova_cn_rgbold" horiz-adv-x="1024" >
<font-face units-per-em="2048" ascent="1618" descent="-430" />
<missing-glyph horiz-adv-x="430" />
<glyph horiz-adv-x="0" />
<glyph horiz-adv-x="0" />
<glyph horiz-adv-x="682" />
<glyph unicode="&#xd;" horiz-adv-x="0" />
<glyph unicode=" "  horiz-adv-x="430" />
<glyph unicode="&#x09;" horiz-adv-x="430" />
<glyph unicode="&#xa0;" horiz-adv-x="430" />
<glyph unicode="!" horiz-adv-x="516" d="M100 135q0 65 47 112.5t111 47.5t111 -47.5t47 -112.5q0 -63 -47 -110.5t-111 -47.5t-111 47.5t-47 110.5zM109 1366h299l-41 -930h-215z" />
<glyph unicode="&#x22;" horiz-adv-x="813" d="M92 1251q0 55 40 95t95 40q54 0 93.5 -40t39.5 -95q0 -16 -20 -134t-40 -227l-19 -110h-109q-80 434 -80 471zM455 1251q0 56 39 95.5t94 39.5t94 -39.5t39 -95.5q0 -16 -20 -134t-40 -227l-20 -110h-106q-80 434 -80 471z" />
<glyph unicode="#" horiz-adv-x="1097" d="M33 350l43 158h162l98 348h-162l41 156h166l98 354h185l-101 -354h160l100 354h183l-101 -354h160l-39 -156h-166l-98 -348h168l-43 -158h-170l-99 -350h-184l103 350h-162l-99 -350h-184l101 350h-160zM422 508h158l98 348h-160z" />
<glyph unicode="$" horiz-adv-x="1026" d="M43 152l135 210q99 -114 258 -141v354q-62 26 -101.5 45.5t-92.5 56.5t-83.5 76.5t-52.5 100.5t-22 135q0 145 94.5 253.5t257.5 137.5v193h185v-191q194 -21 327 -145l-131 -205q-87 81 -196 105v-324q42 -18 72.5 -32.5t69.5 -38t66.5 -46t56.5 -55t46.5 -68.5 t29 -82.5t11.5 -99.5q0 -160 -92 -269t-260 -136v-191h-185v185q-244 20 -393 172zM365 1008q0 -66 92 -121v250q-44 -15 -68 -49t-24 -80zM600 233q45 18 69.5 54.5t24.5 81.5q0 75 -94 131v-267z" />
<glyph unicode="%" horiz-adv-x="1376" d="M47 1044q0 147 84.5 244.5t220.5 97.5q139 0 224.5 -97.5t85.5 -244.5q0 -145 -85.5 -241t-224.5 -96q-136 0 -220.5 96t-84.5 241zM217 1044q0 -84 37.5 -135t97.5 -51q62 0 99.5 51t37.5 135q0 87 -37.5 138t-99.5 51q-61 0 -98 -51t-37 -138zM264 0l723 1366h129 l-723 -1366h-129zM717 313q0 147 85 244.5t222 97.5q136 0 220.5 -97.5t84.5 -244.5q0 -145 -84.5 -241.5t-220.5 -96.5q-137 0 -222 96.5t-85 241.5zM887 313q0 -84 37.5 -135t99.5 -51q60 0 97.5 51t37.5 135q0 87 -37 138t-98 51q-62 0 -99.5 -51t-37.5 -138z" />
<glyph unicode="&#x26;" horiz-adv-x="1120" d="M51 362q0 74 19.5 136t57.5 110.5t79 83.5t96 70q-82 174 -82 291q0 145 93.5 239t238.5 94q130 0 220.5 -81t90.5 -207q0 -58 -17 -109t-40.5 -86t-66 -72t-74 -58.5t-84.5 -53.5q47 -80 92 -144q42 -63 92 -133q54 113 92 254l197 -90q-70 -200 -160 -336 q65 -82 219 -270h-289l-77 96q-141 -121 -316 -121q-166 0 -273.5 102t-107.5 285zM305 383q0 -94 49 -153.5t119 -59.5q84 0 160 76q-90 117 -129 178q-48 70 -107 166q-92 -89 -92 -207zM453 1051q0 -79 45 -174q75 47 114 95t39 113q0 58 -26 90.5t-66 32.5 q-50 0 -78 -41t-28 -116z" />
<glyph unicode="'" horiz-adv-x="454" d="M92 1251q0 55 40 95t95 40q54 0 93.5 -40t39.5 -95q0 -16 -20 -134t-40 -227l-19 -110h-109q-80 434 -80 471z" />
<glyph unicode="(" horiz-adv-x="567" d="M90 498q0 246 71 480.5t201 424.5l166 -98q-87 -197 -129.5 -389.5t-42.5 -417.5q0 -226 42.5 -418t129.5 -387l-166 -101q-130 189 -201 424.5t-71 481.5z" />
<glyph unicode=")" horiz-adv-x="569" d="M39 -307q87 193 129.5 385.5t42.5 419.5t-42.5 419.5t-129.5 387.5l166 98q131 -190 202.5 -424.5t71.5 -480.5q0 -247 -71.5 -482.5t-202.5 -423.5z" />
<glyph unicode="*" horiz-adv-x="688" d="M41 969l199 102l-199 103l61 108l189 -123l-8 227h123l-11 -227l191 123l61 -108l-201 -103l201 -102l-61 -109l-191 123l11 -227h-123l8 227l-189 -123z" />
<glyph unicode="+" horiz-adv-x="909" d="M59 614v154h312v342h168v-342h311v-154h-311v-358h-168v358h-312z" />
<glyph unicode="," horiz-adv-x="516" d="M98 139q0 63 46.5 109.5t109.5 46.5q72 0 123 -55t51 -148q0 -110 -55 -206.5t-150 -164.5l-106 89q51 28 96 84.5t57 109.5q-9 -6 -37 -6q-58 0 -96.5 39.5t-38.5 101.5z" />
<glyph unicode="-" horiz-adv-x="552" d="M61 391v209h431v-209h-431z" />
<glyph unicode="." horiz-adv-x="516" d="M98 135q0 65 48 112.5t112 47.5t111 -47.5t47 -112.5t-47 -111.5t-111 -46.5q-65 0 -112.5 47t-47.5 111z" />
<glyph unicode="/" horiz-adv-x="569" d="M0 -41l393 1448h176l-393 -1448h-176z" />
<glyph unicode="0" horiz-adv-x="1099" d="M66 682q0 108 17.5 208.5t55.5 191.5t93.5 158t137 106.5t179.5 39.5q99 0 180.5 -39.5t137 -106.5t93.5 -158t55 -191.5t17 -208.5t-17 -208t-55 -191.5t-93 -159.5t-137 -108t-181 -40q-98 0 -179.5 40t-137 108t-93.5 159t-55.5 191.5t-17.5 208.5zM346 682 q0 -104 10 -184t32 -145t63 -99.5t98 -34.5q58 0 99 34.5t63.5 99.5t32.5 145t10 184q0 105 -10 184.5t-32.5 144t-63.5 98.5t-99 34t-98.5 -34t-62.5 -98.5t-32 -144.5t-10 -184z" />
<glyph unicode="1" horiz-adv-x="778" d="M16 963l402 403h239v-1366h-276v1012l-207 -215z" />
<glyph unicode="2" horiz-adv-x="1067" d="M57 1161q83 110 201 167.5t258 57.5q201 0 329 -112.5t128 -300.5q0 -77 -25.5 -150.5t-88 -164t-144.5 -183t-219 -233.5h483v-242h-889v221q122 119 192 187.5t145 144.5t112 119t73.5 89.5t50.5 78.5t22.5 64t8.5 67q0 77 -52 124.5t-130 47.5q-175 0 -291 -154z" />
<glyph unicode="3" horiz-adv-x="1050" d="M41 197l164 172q54 -69 131 -109.5t162 -40.5q103 0 156 49.5t53 132.5q0 172 -222 172q-107 0 -127 -4v248q20 -2 121 -2q97 0 153 40.5t56 117.5q0 84 -54.5 127t-146.5 43q-163 0 -272 -137l-156 159q75 105 190.5 163t260.5 58q207 0 327.5 -96t120.5 -274 q0 -114 -75 -201.5t-183 -109.5q111 -16 195 -106.5t84 -221.5q0 -180 -127.5 -291t-341.5 -111q-156 0 -278.5 61.5t-190.5 160.5z" />
<glyph unicode="4" horiz-adv-x="1052" d="M41 291v229l479 846h352v-834h138v-241h-138v-291h-274v291h-557zM289 532h309v555z" />
<glyph unicode="5" horiz-adv-x="1079" d="M78 190l166 177q113 -148 284 -148q95 0 151 62.5t56 152.5q0 101 -51 158t-143 57q-138 0 -226 -112l-198 53v776h819v-242h-545v-350q41 51 107.5 82t142.5 31q161 0 267 -119.5t106 -325.5q0 -207 -130.5 -337t-346.5 -130q-299 0 -459 215z" />
<glyph unicode="6" horiz-adv-x="1075" d="M66 680q0 207 62 365t187 249.5t297 91.5q107 0 198.5 -39t152.5 -108l-134 -205q-80 109 -213 109q-80 0 -143 -57t-96 -149.5t-33 -201.5v-24q40 74 119 124t172 50q162 0 272.5 -118t110.5 -327q0 -200 -125 -332.5t-324 -132.5q-106 0 -191 37t-142.5 101.5 t-96.5 154.5t-56 192.5t-17 219.5zM344 510q4 -54 16 -101t35 -92t63.5 -71.5t94.5 -26.5q88 0 137 63.5t49 147.5q0 112 -55 165.5t-135 53.5q-121 0 -205 -139z" />
<glyph unicode="7" horiz-adv-x="958" d="M43 1124v242h877v-190l-424 -1176h-297l409 1124h-565z" />
<glyph unicode="8" horiz-adv-x="1071" d="M66 348q0 120 75.5 217.5t184.5 139.5q-105 38 -173.5 122t-68.5 203q0 73 25.5 133t69 100.5t102 68.5t123 41t133.5 13q68 0 132 -12.5t122.5 -41t102 -69t69.5 -100.5t26 -133q0 -119 -69.5 -203t-174.5 -122q110 -42 186.5 -139.5t76.5 -215.5q0 -178 -131 -276.5 t-340 -98.5q-210 0 -340.5 98t-130.5 275zM342 385q0 -80 54.5 -125t140.5 -45q83 0 138.5 45.5t55.5 124.5q0 37 -15 70.5t-37.5 56.5t-49.5 41t-50.5 27t-41.5 12q-24 -3 -55 -17.5t-63.5 -39t-54.5 -64.5t-22 -86zM358 985q0 -41 20 -75.5t50.5 -55.5t57.5 -33.5 t51 -17.5q23 5 49.5 17.5t57 33.5t50 55.5t19.5 75.5q0 75 -48 118.5t-128 43.5q-82 0 -130.5 -43.5t-48.5 -118.5z" />
<glyph unicode="9" horiz-adv-x="1075" d="M57 924q0 200 125 332.5t324 132.5q131 0 229.5 -56t157 -155.5t87 -223.5t28.5 -272q0 -206 -62 -364t-187 -249.5t-298 -91.5q-105 0 -196 39.5t-152 108.5l131 203q84 -107 215 -107q125 0 198.5 119t73.5 287v26q-42 -74 -121 -124t-170 -50q-162 0 -272.5 118 t-110.5 327zM336 934q0 -112 55 -165.5t135 -53.5q63 0 115 38t88 101q-3 54 -14.5 101t-34 92t-63 71.5t-95.5 26.5q-88 0 -137 -64t-49 -147z" />
<glyph unicode=":" horiz-adv-x="512" d="M98 135q0 65 48 112.5t112 47.5t111 -47.5t47 -112.5t-47 -111.5t-111 -46.5q-65 0 -112.5 47t-47.5 111zM98 846q0 64 47.5 111t112.5 47q64 0 111 -47t47 -111q0 -65 -47 -112.5t-111 -47.5t-112 48t-48 112z" />
<glyph unicode=";" horiz-adv-x="516" d="M98 143q0 64 46.5 110t109.5 46q72 0 123 -55t51 -148q0 -110 -55 -206t-150 -164l-106 88q51 28 96 84.5t57 109.5q-9 -6 -37 -6q-58 0 -96.5 39.5t-38.5 101.5zM98 846q0 64 47.5 111t112.5 47q64 0 111 -47t47 -111t-47 -112t-111 -48t-112 48.5t-48 111.5z" />
<glyph unicode="&#x3c;" horiz-adv-x="909" d="M59 598v176l791 346v-184l-612 -252l612 -250v-182z" />
<glyph unicode="=" horiz-adv-x="909" d="M59 414v153h791v-153h-791zM59 801v153h791v-153h-791z" />
<glyph unicode="&#x3e;" horiz-adv-x="909" d="M59 252v182l611 250l-611 252v184l791 -346v-176z" />
<glyph unicode="?" horiz-adv-x="800" d="M35 1225q68 79 162.5 120t201.5 41q166 0 265.5 -86.5t99.5 -222.5q0 -75 -29.5 -138t-71 -106.5t-83.5 -83t-71.5 -85t-29.5 -93.5q0 -53 33 -90l-209 -67q-59 68 -59 180q0 64 25 118t61 90.5t72.5 70t61.5 72t25 81.5q0 50 -36 85.5t-99 35.5q-107 0 -182 -94z M242 135q0 65 46.5 112.5t112.5 47.5q64 0 111 -47.5t47 -112.5t-46.5 -111.5t-111.5 -46.5q-66 0 -112.5 46.5t-46.5 111.5z" />
<glyph unicode="@" horiz-adv-x="1452" d="M72 469q0 163 62.5 317t166 268t244.5 183.5t291 69.5q241 0 392.5 -157t151.5 -402q0 -126 -33 -236t-86.5 -182.5t-120 -114t-134.5 -41.5q-79 0 -128.5 40t-58.5 103l-4 17q-49 -73 -115.5 -116.5t-146.5 -43.5q-115 0 -185.5 78.5t-70.5 224.5q0 136 56.5 261 t156 203.5t213.5 78.5q74 0 126.5 -37t76.5 -98l22 106h217l-106 -510q-6 -30 -6 -49q0 -90 67 -90q59 0 116.5 110t57.5 293q0 222 -126 353t-339 131q-135 0 -261 -64t-216.5 -168.5t-145 -242.5t-54.5 -281q0 -154 59 -276t172.5 -193.5t263.5 -71.5q175 0 338 115 l41 -61q-184 -129 -389 -129q-253 0 -409 171t-156 441zM524 504q0 -71 32.5 -113.5t92.5 -42.5q62 0 106.5 36.5t82.5 94.5l55 260q-14 44 -45 75.5t-80 31.5q-71 0 -128.5 -54.5t-86.5 -132t-29 -155.5z" />
<glyph unicode="A" horiz-adv-x="1134" d="M-4 0l405 1366h332l406 -1366h-299l-64 242h-420l-63 -242h-297zM412 483h311l-156 594z" />
<glyph unicode="B" horiz-adv-x="1142" d="M121 0v1366h565q174 0 267.5 -99.5t93.5 -248.5q0 -125 -61 -207t-159 -106q104 -17 173 -113t69 -223q0 -164 -93 -266.5t-271 -102.5h-584zM395 240h236q76 0 116.5 44t40.5 124q0 74 -41 120.5t-116 46.5h-236v-335zM395 813h226q71 0 108 42.5t37 115.5q0 71 -37 113 t-108 42h-226v-313z" />
<glyph unicode="C" horiz-adv-x="1142" d="M66 682q0 206 70 366t201.5 250.5t305.5 90.5q312 0 457 -328l-228 -100q-32 85 -91 134.5t-138 49.5q-136 0 -215.5 -129t-79.5 -334t79.5 -334t215.5 -129q81 0 140.5 54.5t90.5 144.5l228 -99q-143 -344 -459 -344q-174 0 -305.5 90.5t-201.5 250.5t-70 366z" />
<glyph unicode="D" horiz-adv-x="1222" d="M121 0v1366h440q185 0 320.5 -87.5t204.5 -241.5t69 -355t-68.5 -354.5t-204 -240.5t-321.5 -87h-440zM395 242h166q149 0 231 120t82 320q0 207 -80.5 324.5t-232.5 117.5h-166v-882z" />
<glyph unicode="E" horiz-adv-x="985" d="M121 0v1366h782v-242h-508v-309h494v-242h-494v-331h508v-242h-782z" />
<glyph unicode="F" horiz-adv-x="968" d="M121 0v1366h782v-242h-508v-309h494v-242h-494v-573h-274z" />
<glyph unicode="G" horiz-adv-x="1200" d="M66 682q0 319 158.5 513t418.5 194q86 0 160.5 -25t129.5 -69.5t95.5 -99t69.5 -120.5l-224 -104q-35 78 -93 126t-138 48q-133 0 -214 -123.5t-81 -339.5t81 -339.5t214 -123.5q65 0 119.5 23t87.5 59v207h-256v242h516v-557q-186 -218 -467 -218q-171 0 -302.5 88 t-203 248.5t-71.5 370.5z" />
<glyph unicode="H" horiz-adv-x="1245" d="M121 0v1366h274v-543h453v543h276v-1366h-276v582h-453v-582h-274z" />
<glyph unicode="I" horiz-adv-x="516" d="M121 0v1366h274v-1366h-274z" />
<glyph unicode="J" horiz-adv-x="854" d="M14 80l99 215q73 -76 170 -76q83 0 130.5 48t47.5 136v963h274v-971q0 -209 -115 -314.5t-311 -105.5q-182 0 -295 105z" />
<glyph unicode="K" horiz-adv-x="1132" d="M121 0v1366h274v-621l385 621h320l-436 -643l466 -723h-323l-315 535l-97 -152v-383h-274z" />
<glyph unicode="L" horiz-adv-x="909" d="M121 0v1366h274v-1124h459v-242h-733z" />
<glyph unicode="M" horiz-adv-x="1505" d="M121 0v1366h368l265 -762l266 762h366v-1366h-274v881l-305 -881h-109l-303 881v-881h-274z" />
<glyph unicode="N" horiz-adv-x="1241" d="M121 0v1366h278l447 -778v778h276v-1366h-262l-465 807v-807h-274z" />
<glyph unicode="O" horiz-adv-x="1273" d="M66 682q0 204 67 363t197.5 251.5t304.5 92.5q175 0 306 -92.5t198 -251.5t67 -363q0 -205 -67 -364t-198 -251t-306 -92q-174 0 -304.5 92t-197.5 251.5t-67 363.5zM348 682q0 -202 76 -332.5t211 -130.5q91 0 158 62t100 165.5t33 235.5q0 204 -77 333.5t-214 129.5 q-91 0 -156.5 -61t-98 -164.5t-32.5 -237.5z" />
<glyph unicode="P" horiz-adv-x="1091" d="M121 0v1366h504q102 0 184 -35t133 -95.5t78 -138.5t27 -167t-27 -167t-78 -138.5t-133 -95.5t-184 -35h-230v-494h-274zM395 735h197q78 0 126 53t48 142t-48 141.5t-126 52.5h-197v-389z" />
<glyph unicode="Q" horiz-adv-x="1273" d="M66 682q0 204 67 363t197.5 251.5t304.5 92.5q175 0 306 -92.5t198 -251.5t67 -363q0 -172 -49 -314t-141 -237l57 -90l-190 -119l-56 86q-94 -33 -192 -33q-174 0 -304.5 92t-197.5 251.5t-67 363.5zM348 682q0 -202 76 -332.5t211 -130.5q32 0 59 6l-133 215l193 119 l110 -180q62 121 62 303q0 204 -77 333.5t-214 129.5q-91 0 -156.5 -61t-98 -164.5t-32.5 -237.5z" />
<glyph unicode="R" horiz-adv-x="1128" d="M121 0v1366h510q186 0 301 -121t115 -311q0 -85 -21 -155t-56 -116t-75.5 -75.5t-85.5 -44.5l248 -543h-305l-209 494h-148v-494h-274zM395 735h195q80 0 128 53t48 142t-48 141.5t-128 52.5h-195v-389z" />
<glyph unicode="S" horiz-adv-x="1019" d="M33 152l135 210q59 -66 145.5 -105.5t184.5 -39.5q88 0 137 43t49 109q0 38 -21 69t-56 53t-81 42t-96.5 41t-101 44.5t-96.5 57.5t-81 75.5t-56 102.5t-21 135q0 168 122.5 284t327.5 116q253 0 414 -152l-131 -205q-121 115 -293 115q-73 0 -116.5 -38t-43.5 -101 q0 -43 33.5 -76.5t87.5 -59t118.5 -51.5t129.5 -61.5t119 -81.5t87.5 -119.5t33.5 -167.5q0 -185 -122 -300.5t-341 -115.5q-290 0 -467 177z" />
<glyph unicode="T" horiz-adv-x="968" d="M45 1124v242h881v-242h-303v-1124h-275v1124h-303z" />
<glyph unicode="U" horiz-adv-x="1247" d="M121 471v895h276v-897q0 -121 59.5 -186.5t168.5 -65.5q108 0 166.5 65.5t58.5 186.5v897h276v-895q0 -234 -134.5 -365t-366.5 -131q-234 0 -369 131t-135 365z" />
<glyph unicode="V" horiz-adv-x="1134" d="M-4 1366h297l274 -1042l273 1042h299l-406 -1366h-332z" />
<glyph unicode="W" horiz-adv-x="1570" d="M12 1366h295l176 -950l195 950h215l197 -950l174 950h295l-312 -1366h-286l-177 909l-174 -909h-286z" />
<glyph unicode="X" horiz-adv-x="1132" d="M-4 0l399 698l-377 668h316l231 -457l232 457h317l-377 -666l400 -700h-316l-256 485l-254 -485h-315z" />
<glyph unicode="Y" horiz-adv-x="1101" d="M-8 1366h303l256 -549l256 549h303l-422 -803v-563h-274v563z" />
<glyph unicode="Z" horiz-adv-x="991" d="M74 0v225l493 899h-493v242h829v-221l-497 -903h512v-242h-844z" />
<glyph unicode="[" horiz-adv-x="495" d="M84 -389v1778h377v-166h-199v-1446h199v-166h-377z" />
<glyph unicode="\" horiz-adv-x="569" d="M0 1407h176l393 -1448h-176z" />
<glyph unicode="]" horiz-adv-x="495" d="M35 -223h198v1446h-198v166h377v-1778h-377v166z" />
<glyph unicode="^" horiz-adv-x="796" d="M39 682l270 684h180l269 -684h-180l-181 502l-178 -502h-180z" />
<glyph unicode="_" horiz-adv-x="864" d="M-6 -82h876v-166h-876v166z" />
<glyph unicode="`" horiz-adv-x="438" d="M0 1434h219l219 -295h-164z" />
<glyph unicode="a" horiz-adv-x="980" d="M57 303q0 154 89.5 238t215.5 84q79 0 150.5 -31t110.5 -86v129q0 80 -48 126t-135 46q-133 0 -243 -107l-93 168q74 71 176.5 107.5t204.5 36.5q83 0 151 -19.5t121.5 -60t83 -109t29.5 -161.5v-664h-247v98q-40 -57 -112 -90t-149 -33q-124 0 -214.5 88.5t-90.5 239.5z M303 299q0 -71 42.5 -114.5t111.5 -43.5q51 0 96 25.5t70 69.5v126q-25 44 -70 70.5t-96 26.5q-69 0 -111.5 -44.5t-42.5 -115.5z" />
<glyph unicode="b" horiz-adv-x="1032" d="M111 0v1366h245v-502q43 74 109.5 112t140.5 38q167 0 267 -141t100 -379q0 -241 -100 -380t-267 -139q-72 0 -138.5 39t-111.5 111v-125h-245zM356 309q25 -50 73.5 -83t98.5 -33q91 0 141 83.5t50 217.5q0 135 -50 219t-141 84q-50 0 -98.5 -34t-73.5 -85v-369z" />
<glyph unicode="c" horiz-adv-x="862" d="M59 496q0 228 125.5 373t327.5 145q109 0 188 -37t127 -96l-122 -170q-70 86 -166 86q-104 0 -165 -84.5t-61 -216.5t61 -217.5t165 -85.5q96 0 166 86l122 -170q-109 -134 -315 -134q-202 0 -327.5 146t-125.5 375z" />
<glyph unicode="d" horiz-adv-x="1032" d="M59 494q0 238 100 379t267 141q73 0 139.5 -38t110.5 -112v502h246v-1366h-246v125q-45 -72 -111.5 -111t-138.5 -39q-167 0 -267 139t-100 380zM313 494q0 -134 50 -217.5t141 -83.5q50 0 98.5 33t73.5 83v371q-25 50 -73.5 83.5t-98.5 33.5q-91 0 -141 -84t-50 -219z " />
<glyph unicode="e" horiz-adv-x="980" d="M59 496q0 144 53 261t155 187t235 70t230.5 -68.5t146.5 -187.5t49 -273v-69h-621q8 -107 70 -174.5t170 -67.5q55 0 115 26t100 70l112 -147q-65 -71 -159 -109.5t-195 -38.5q-209 0 -335 143.5t-126 377.5zM307 584h383q-1 33 -7.5 63.5t-21 61.5t-35.5 54t-54 37.5 t-74 14.5q-49 0 -86.5 -21.5t-59 -56.5t-32.5 -73.5t-13 -79.5z" />
<glyph unicode="f" horiz-adv-x="589" d="M29 774v215h127v78q0 150 80 234.5t219 84.5q141 0 217 -73l-80 -166q-37 37 -88 37q-47 0 -74 -31t-27 -86v-78h162v-215h-162v-774h-247v774h-127z" />
<glyph unicode="g" horiz-adv-x="1032" d="M59 510q0 236 99 370t266 134q75 0 141 -38t109 -112v125h246v-938q0 -104 -26.5 -185t-70 -130t-104 -81t-122.5 -44t-132 -12q-224 0 -365 127l99 188q100 -109 254 -109q95 0 158 56.5t63 177.5v121q-45 -73 -111 -112.5t-139 -39.5q-167 0 -266 131.5t-99 370.5z M313 510q0 -132 49.5 -208.5t141.5 -76.5q50 0 98 33.5t72 81.5v340q-24 50 -72 83.5t-98 33.5q-92 0 -141.5 -77.5t-49.5 -209.5z" />
<glyph unicode="h" d="M111 0v1366h247v-506q41 63 120 108.5t169 45.5q135 0 200.5 -69t65.5 -197v-748h-245v655q0 142 -131 142q-56 0 -103.5 -36.5t-75.5 -86.5v-674h-247z" />
<glyph unicode="i" horiz-adv-x="466" d="M86 1247q0 61 43.5 105.5t103.5 44.5q61 0 104.5 -44t43.5 -106q0 -61 -43 -104t-105 -43q-60 0 -103.5 43t-43.5 104zM111 0v989h245v-989h-245z" />
<glyph unicode="j" horiz-adv-x="466" d="M-143 -342l61 186q39 -39 92 -39q46 0 73.5 34.5t27.5 103.5v1046h245v-1046q0 -166 -77 -255t-234 -89q-66 0 -107 13.5t-81 45.5zM86 1247q0 61 43.5 105.5t103.5 44.5q61 0 104.5 -44t43.5 -106q0 -61 -43 -104t-105 -43q-60 0 -103.5 43t-43.5 104z" />
<glyph unicode="k" horiz-adv-x="960" d="M111 0v1366h245v-825l301 448h287l-313 -444l323 -545h-288l-205 387l-105 -145v-242h-245z" />
<glyph unicode="l" horiz-adv-x="466" d="M111 0v1366h245v-1366h-245z" />
<glyph unicode="m" horiz-adv-x="1523" d="M111 0v989h245v-129q33 57 113 105.5t166 48.5q95 0 157 -44t82 -128q38 69 119 120.5t170 51.5q118 0 184 -65t66 -197v-752h-246v666q0 131 -112 131q-53 0 -97.5 -37t-72.5 -86v-674h-246v666q0 131 -113 131q-52 0 -97 -37t-73 -86v-674h-245z" />
<glyph unicode="n" d="M111 0v989h245v-129q43 64 122 109t169 45q133 0 198.5 -71.5t65.5 -199.5v-743h-245v651q0 146 -129 146q-57 0 -104 -36t-77 -87v-674h-245z" />
<glyph unicode="o" horiz-adv-x="1013" d="M59 496q0 141 50 257t153.5 188.5t243.5 72.5q107 0 193.5 -42t141.5 -114t84 -164.5t29 -197.5q0 -106 -29 -199.5t-84 -165.5t-141.5 -114t-193.5 -42q-106 0 -192 42t-141 114t-84.5 165.5t-29.5 199.5zM315 496q0 -131 48.5 -217t142.5 -86q96 0 145 85.5t49 217.5 q0 131 -49 216t-145 85q-93 0 -142 -85.5t-49 -215.5z" />
<glyph unicode="p" horiz-adv-x="1030" d="M111 -377v1366h245v-125q45 72 111 111t139 39q168 0 267.5 -138.5t99.5 -379.5t-99.5 -381t-267.5 -140q-73 0 -139.5 38t-110.5 112v-502h-245zM356 309q25 -49 73.5 -82.5t96.5 -33.5q92 0 142.5 84t50.5 219q0 134 -50.5 217.5t-142.5 83.5q-49 0 -97 -32.5 t-73 -82.5v-373z" />
<glyph unicode="q" horiz-adv-x="1030" d="M57 496q0 241 99.5 379.5t267.5 138.5q73 0 139 -39t111 -111v125h246v-1366h-246v502q-44 -74 -110.5 -112t-139.5 -38q-168 0 -267.5 140t-99.5 381zM311 496q0 -135 50 -219t141 -84q50 0 98.5 33.5t73.5 82.5v373q-25 50 -73 82.5t-99 32.5q-91 0 -141 -83.5 t-50 -217.5z" />
<glyph unicode="r" horiz-adv-x="655" d="M111 0v989h245v-135q43 68 118.5 114t152.5 46v-242q-24 6 -60 6q-59 0 -119.5 -34t-91.5 -85v-659h-245z" />
<glyph unicode="s" horiz-adv-x="843" d="M35 117l104 172q47 -51 123.5 -86t149.5 -35q69 0 107 28.5t38 75.5q0 33 -27 56.5t-70 39.5t-95.5 32t-104.5 40t-95 56.5t-70 89t-27 131.5q0 126 96.5 211.5t263.5 85.5q200 0 344 -127l-98 -166q-39 44 -104.5 73t-137.5 29q-58 0 -94.5 -27t-36.5 -67q0 -30 27 -52 t70.5 -37.5t96 -31.5t105 -41t96 -59t70.5 -92t27 -133q0 -135 -103 -221.5t-274 -86.5q-119 0 -218 37.5t-163 104.5z" />
<glyph unicode="t" horiz-adv-x="610" d="M25 774v215h129v271h245v-271h164v-215h-164v-479q0 -48 18.5 -75t53.5 -27q53 0 74 28l51 -188q-65 -58 -190 -58q-252 0 -252 263v536h-129z" />
<glyph unicode="u" horiz-adv-x="1021" d="M111 242v747h245v-653q0 -143 131 -143q56 0 103 34.5t76 85.5v676h245v-989h-245v125q-43 -63 -121 -106.5t-170 -43.5q-133 0 -198.5 69.5t-65.5 197.5z" />
<glyph unicode="v" horiz-adv-x="915" d="M-4 989h262l199 -694l200 694h263l-330 -989h-264z" />
<glyph unicode="w" horiz-adv-x="1409" d="M6 989h254l156 -672l172 672h227l178 -672l156 672h256l-264 -989h-260l-176 674l-175 -674h-260z" />
<glyph unicode="x" horiz-adv-x="897" d="M4 0l289 504l-275 485h269l162 -311l159 311h269l-275 -485l291 -504h-268l-176 330l-179 -330h-266z" />
<glyph unicode="y" horiz-adv-x="915" d="M-4 989h262l199 -692l200 692h263l-388 -1157q-44 -130 -121.5 -180.5t-203.5 -52.5q-72 0 -119 14l37 217q28 -14 63 -14q84 0 109 71l33 95z" />
<glyph unicode="z" horiz-adv-x="833" d="M70 0v184l370 590h-370v215h684v-178l-373 -596h381v-215h-692z" />
<glyph unicode="{" horiz-adv-x="520" d="M8 430v139q52 0 79.5 39t27.5 99v397q0 125 83 205t195 80h92v-166h-92q-42 0 -71 -33t-29 -86v-422q0 -142 -94 -182q94 -40 94 -183v-421q0 -52 29 -86.5t71 -34.5h92v-164h-92q-112 0 -195 79t-83 204v399q0 60 -27.5 98.5t-79.5 38.5z" />
<glyph unicode="|" horiz-adv-x="405" d="M121 -41v1448h164v-1448h-164z" />
<glyph unicode="}" horiz-adv-x="520" d="M35 -225h90q42 0 72 34.5t30 86.5v421q0 144 92 183q-92 39 -92 182v422q0 53 -30 86t-72 33h-90v166h90q113 0 197 -80t84 -205v-397q0 -60 27 -99t79 -39v-139q-52 0 -79 -38.5t-27 -98.5v-399q0 -125 -84 -204t-197 -79h-90v164z" />
<glyph unicode="~" horiz-adv-x="948" d="M53 864q5 63 11.5 114.5t19 112.5t33 106.5t49 85t71 60.5t95.5 21q49 0 85.5 -20t57.5 -52.5t36.5 -72t25.5 -78.5t20 -71.5t25 -52.5t36 -20q49 0 72.5 90t36.5 279l168 -18q-4 -63 -10.5 -114.5t-18.5 -112.5t-32 -106.5t-48.5 -85t-71.5 -60.5t-96 -21q-57 0 -98 27 t-60.5 67.5t-35.5 87.5t-25 87.5t-26 67.5t-41 27q-49 0 -72.5 -89.5t-36.5 -276.5z" />
<glyph unicode="&#xa2;" horiz-adv-x="862" d="M59 496q0 199 98 337.5t263 170.5v153h180v-151q141 -24 227 -125l-122 -170q-48 58 -105 75v-585q57 20 105 78l122 -170q-89 -104 -227 -125v-189h-180v191q-166 32 -263.5 170.5t-97.5 339.5zM313 496q0 -88 28 -157.5t79 -107.5v527q-52 -36 -79.5 -105t-27.5 -157z " />
<glyph unicode="&#xa3;" horiz-adv-x="997" d="M53 557v160h119q-80 134 -80 254q0 119 64.5 215.5t165.5 148t213 51.5q151 0 256.5 -65.5t150.5 -192.5l-219 -110q-21 67 -63 106t-101 39q-71 0 -119.5 -54t-48.5 -142q0 -27 4 -53.5t8 -44t15 -43.5t15.5 -35.5t20.5 -38.5t19 -35h223v-160h-170q4 -32 4 -51 q0 -67 -35.5 -136t-88.5 -108q44 17 88 17q54 0 122 -30t111 -30q52 0 93 19.5t63 48.5l92 -217q-36 -42 -106 -68.5t-160 -26.5q-69 0 -126.5 21.5t-105 43t-92.5 21.5q-90 0 -205 -75l-88 188q87 47 140 117t53 145q0 55 -25 121h-207z" />
<glyph unicode="&#xa5;" horiz-adv-x="1101" d="M-8 1366h303l256 -549l256 549h303l-342 -649h283v-154h-363v-172h363v-153h-363v-238h-274v238h-365v153h365v172h-365v154h283z" />
<glyph unicode="&#xa8;" horiz-adv-x="585" d="M-31 1249q0 55 38.5 93t94.5 38t93.5 -38t37.5 -93q0 -56 -38 -94.5t-93 -38.5q-56 0 -94.5 39t-38.5 94zM352 1249q0 55 38.5 93t92.5 38q56 0 95.5 -38t39.5 -93t-39.5 -94t-95.5 -39q-54 0 -92.5 39t-38.5 94z" />
<glyph unicode="&#xa9;" horiz-adv-x="1593" d="M90 684q0 192 95 355t258 257.5t354 94.5q144 0 275 -56t225 -150.5t150 -225.5t56 -275q0 -143 -56 -274t-150 -226t-225 -151t-275 -56q-191 0 -354 95t-258 258t-95 354zM164 684q0 -128 50.5 -245.5t135 -202t202 -135t245.5 -50.5t245.5 50.5t202 135t135 202 t50.5 245.5t-50.5 245.5t-135 202t-202 135t-245.5 50.5t-245.5 -50.5t-202 -135t-135 -202t-50.5 -245.5zM381 686q0 186 123.5 309t302.5 123q184 0 301 -137l-61 -61q-40 54 -104 86t-136 32q-138 0 -237 -99.5t-99 -252.5q0 -151 99 -252.5t237 -101.5q73 0 137.5 32 t104.5 87l63 -60q-120 -139 -305 -139q-179 0 -302.5 124t-123.5 310z" />
<glyph unicode="&#xab;" horiz-adv-x="933" d="M61 498l256 362h209l-256 -362l256 -369h-209zM406 498l256 362h210l-256 -362l256 -369h-210z" />
<glyph unicode="&#xad;" horiz-adv-x="552" d="M61 391v209h431v-209h-431z" />
<glyph unicode="&#xae;" horiz-adv-x="1011" d="M72 952q0 181 127 307.5t307 126.5q119 0 219 -57.5t157.5 -157.5t57.5 -219q0 -180 -126.5 -307t-307.5 -127q-180 0 -307 127t-127 307zM135 952q0 -152 108.5 -261t262.5 -109q153 0 260.5 108.5t107.5 261.5q0 155 -107 262t-261 107t-262.5 -107t-108.5 -262z M340 702v498h203q66 0 114 -42t48 -109q0 -72 -46 -110t-81 -38l133 -199h-86l-129 197h-86v-197h-70zM410 961h133q34 0 62 25.5t28 62.5q0 39 -28 65.5t-62 26.5h-133v-180z" />
<glyph unicode="&#xb4;" horiz-adv-x="438" d="M0 1139l219 295h219l-274 -295h-164z" />
<glyph unicode="&#xb8;" horiz-adv-x="413" d="M0 -334l47 98q72 -57 148 -57q40 0 67 18.5t27 51.5q0 53 -53 53q-36 0 -60 -27l-90 52l64 168h122l-53 -129q26 20 66 20q55 0 92 -39.5t37 -101.5q0 -78 -61 -125t-152 -47q-121 0 -201 65z" />
<glyph unicode="&#xbb;" horiz-adv-x="933" d="M61 129l256 369l-256 362h209l256 -362l-256 -369h-209zM406 129l256 369l-256 362h210l256 -362l-256 -369h-210z" />
<glyph unicode="&#x2c6;" horiz-adv-x="542" d="M0 1139l158 295h221l164 -295h-144l-131 186l-125 -186h-143z" />
<glyph unicode="&#x2da;" horiz-adv-x="395" d="M0 1292q0 82 58.5 140.5t140.5 58.5q81 0 138.5 -58.5t57.5 -140.5q0 -83 -57 -140.5t-139 -57.5t-140.5 57.5t-58.5 140.5zM111 1292q0 -36 26 -62t62 -26q37 0 61.5 25.5t24.5 62.5q0 36 -25 62t-61 26q-35 0 -61.5 -26.5t-26.5 -61.5z" />
<glyph unicode="&#x2dc;" horiz-adv-x="595" d="M0 1147q0 126 51.5 200t145.5 74q34 0 62 -15t46.5 -36.5t34 -42.5t33 -36t35.5 -15q28 0 44.5 33.5t16.5 99.5h127q0 -127 -51 -200.5t-146 -73.5q-34 0 -62 15t-46 36.5t-33.5 42.5t-32.5 36t-35 15q-28 0 -45.5 -33.5t-17.5 -99.5h-127z" />
<glyph unicode="&#x401;" horiz-adv-x="985" d="M121 0v1366h782v-242h-508v-309h494v-242h-494v-331h508v-242h-782zM186 1591q0 55 38.5 93t94.5 38t94 -38t38 -93q0 -56 -38.5 -94.5t-93.5 -38.5t-94 39t-39 94zM569 1591q0 55 38.5 93t92.5 38q56 0 96 -38t40 -93t-40 -94t-96 -39q-54 0 -92.5 39t-38.5 94z" />
<glyph unicode="&#x402;" horiz-adv-x="1323" d="M20 1124v242h883v-242h-303v-288q115 28 219 28q110 0 197 -35t142 -95t83.5 -138.5t28.5 -169.5v-29q0 -106 -35 -188t-97 -132.5t-142.5 -76t-176.5 -25.5v240q81 0 127.5 46t46.5 136v27q0 93 -57 147t-158 54q-96 0 -178 -29v-596h-274v1124h-306z" />
<glyph unicode="&#x403;" horiz-adv-x="968" d="M121 0v1366h782v-242h-508v-1124h-274zM389 1481l219 295h219l-274 -295h-164z" />
<glyph unicode="&#x404;" horiz-adv-x="1142" d="M66 682q0 206 70 366t201.5 250.5t305.5 90.5q312 0 457 -328l-228 -100q-32 85 -91 134.5t-140 49.5q-113 0 -187 -89t-98 -241h506v-242h-508q19 -162 94 -258t193 -96q82 0 142 54.5t91 144.5l228 -99q-143 -344 -459 -344q-174 0 -305.5 90.5t-201.5 250.5t-70 366z " />
<glyph unicode="&#x405;" horiz-adv-x="1019" d="M33 152l135 210q59 -66 145.5 -105.5t184.5 -39.5q88 0 137 43t49 109q0 38 -21 69t-56 53t-81 42t-96.5 41t-101 44.5t-96.5 57.5t-81 75.5t-56 102.5t-21 135q0 168 122.5 284t327.5 116q253 0 414 -152l-131 -205q-121 115 -293 115q-73 0 -116.5 -38t-43.5 -101 q0 -43 33.5 -76.5t87.5 -59t118.5 -51.5t129.5 -61.5t119 -81.5t87.5 -119.5t33.5 -167.5q0 -185 -122 -300.5t-341 -115.5q-290 0 -467 177z" />
<glyph unicode="&#x406;" horiz-adv-x="516" d="M121 0v1366h274v-1366h-274z" />
<glyph unicode="&#x407;" horiz-adv-x="516" d="M-66 1591q0 55 39 93t95 38t93.5 -38t37.5 -93q0 -56 -38 -94.5t-93 -38.5q-56 0 -95 39t-39 94zM121 0v1366h274v-1366h-274zM317 1591q0 55 39 93t93 38q56 0 95.5 -38t39.5 -93t-39.5 -94t-95.5 -39q-54 0 -93 39t-39 94z" />
<glyph unicode="&#x408;" horiz-adv-x="854" d="M14 80l99 215q73 -76 170 -76q83 0 130.5 48t47.5 136v963h274v-971q0 -209 -115 -314.5t-311 -105.5q-182 0 -295 105z" />
<glyph unicode="&#x409;" horiz-adv-x="1818" d="M43 -25v244q37 0 62.5 8.5t50 34.5t42 73t32 124t24.5 188l65 719h805v-494h228q102 0 184 -35t133.5 -95.5t79 -138.5t27.5 -167t-27 -167t-78.5 -138.5t-133.5 -95.5t-185 -35h-502v1124h-281l-43 -491q-14 -165 -45.5 -284.5t-72.5 -191t-101 -113t-121 -55.5 t-143 -14zM1124 242h195q80 0 128 52.5t48 141.5t-48 142t-128 53h-195v-389z" />
<glyph unicode="&#x40a;" horiz-adv-x="1818" d="M121 0v1366h274v-543h455v543h274v-543h242q195 0 302.5 -118t107.5 -293q0 -84 -26.5 -158t-76 -131t-129 -90t-178.5 -33h-516v582h-455v-582h-274zM1124 242h209q74 0 118 46t44 124t-44 124t-118 46h-209v-340z" />
<glyph unicode="&#x40b;" horiz-adv-x="1355" d="M20 1124v242h883v-242h-303v-288q115 28 219 28q217 0 330 -129t113 -338v-397h-277v397q0 112 -53 170t-154 58q-96 0 -178 -29v-596h-274v1124h-306z" />
<glyph unicode="&#x40c;" horiz-adv-x="1132" d="M121 0v1366h274v-621l385 621h320l-436 -643l466 -723h-323l-315 535l-97 -152v-383h-274zM467 1481l219 295h219l-274 -295h-164z" />
<glyph unicode="&#x40e;" horiz-adv-x="1101" d="M-8 1366h301l258 -666l258 666h301l-469 -1112q-60 -142 -148.5 -210.5t-236.5 -68.5q-73 0 -142.5 21t-115.5 57l86 223q65 -55 143 -55q57 0 91.5 29.5t64.5 93.5l20 53zM244 1597l112 91q33 -47 84 -75t111 -28q59 0 110 27.5t84 75.5l113 -91q-55 -72 -134.5 -112.5 t-172.5 -40.5q-91 0 -171.5 41t-135.5 112z" />
<glyph unicode="&#x40f;" horiz-adv-x="1245" d="M121 0v1366h274v-1124h455v1124h274v-1366h-364v-260h-275v260h-364z" />
<glyph unicode="&#x410;" horiz-adv-x="1134" d="M-4 0l405 1366h332l406 -1366h-299l-64 242h-420l-63 -242h-297zM412 483h311l-156 594z" />
<glyph unicode="&#x411;" horiz-adv-x="1091" d="M121 0v1366h840v-242h-566v-258h232q102 0 183.5 -35t132.5 -95t77.5 -137t26.5 -165q0 -89 -26.5 -166.5t-77.5 -137.5t-132.5 -95t-183.5 -35h-506zM395 242h199q78 0 125 51.5t47 138.5q0 88 -47 140.5t-125 52.5h-199v-383z" />
<glyph unicode="&#x412;" horiz-adv-x="1142" d="M121 0v1366h565q174 0 267.5 -99.5t93.5 -248.5q0 -125 -61 -207t-159 -106q104 -17 173 -113t69 -223q0 -164 -93 -266.5t-271 -102.5h-584zM395 240h236q76 0 116.5 44t40.5 124q0 74 -41 120.5t-116 46.5h-236v-335zM395 813h226q71 0 108 42.5t37 115.5q0 71 -37 113 t-108 42h-226v-313z" />
<glyph unicode="&#x413;" horiz-adv-x="968" d="M121 0v1366h782v-242h-508v-1124h-274z" />
<glyph unicode="&#x414;" horiz-adv-x="1267" d="M41 219q39 6 63 16t50.5 36.5t43 73t31.5 125.5t25 194l65 702h805v-1124h115v-494h-274v252h-648v-252h-276v471zM385 242h465v882h-281l-41 -465q-25 -283 -143 -417z" />
<glyph unicode="&#x415;" horiz-adv-x="985" d="M121 0v1366h782v-242h-508v-309h494v-242h-494v-331h508v-242h-782z" />
<glyph unicode="&#x416;" horiz-adv-x="1642" d="M2 0l469 723l-438 643h321l330 -535v535h274v-535l330 535h322l-439 -643l469 -723h-325l-316 535l-41 -66v-469h-274v469l-41 66l-315 -535h-326z" />
<glyph unicode="&#x417;" horiz-adv-x="1075" d="M41 197l164 172q53 -68 135.5 -109t167.5 -41q109 0 164 49.5t55 132.5q0 172 -235 172h-216v242h207q102 0 163 40.5t61 117.5q0 84 -58 127t-155 43q-78 0 -152.5 -36t-126.5 -101l-156 159q74 104 195.5 162.5t267.5 58.5q209 0 336 -96.5t127 -273.5 q0 -116 -76.5 -202.5t-193.5 -108.5q120 -16 204.5 -105.5t84.5 -222.5q0 -179 -133.5 -290.5t-348.5 -111.5q-158 0 -286 62t-195 160z" />
<glyph unicode="&#x418;" horiz-adv-x="1241" d="M121 0v1366h274v-811l447 811h280v-1366h-276v840l-463 -840h-262z" />
<glyph unicode="&#x419;" horiz-adv-x="1241" d="M121 0v1366h274v-811l447 811h280v-1366h-276v840l-463 -840h-262zM313 1597l113 91q33 -47 84 -75t111 -28q59 0 110 27.5t84 75.5l113 -91q-55 -72 -134.5 -112.5t-172.5 -40.5q-91 0 -172 41t-136 112z" />
<glyph unicode="&#x41a;" horiz-adv-x="1132" d="M121 0v1366h274v-621l385 621h320l-436 -643l466 -723h-323l-315 535l-97 -152v-383h-274z" />
<glyph unicode="&#x41b;" horiz-adv-x="1245" d="M43 -25v244q37 0 62.5 8.5t50 34.5t42 73.5t32 125t24.5 188.5l65 717h805v-1366h-276v1124h-279l-43 -491q-14 -165 -45.5 -284.5t-72.5 -191t-101 -113t-121 -55.5t-143 -14z" />
<glyph unicode="&#x41c;" horiz-adv-x="1505" d="M121 0v1366h368l265 -762l266 762h366v-1366h-274v881l-305 -881h-109l-303 881v-881h-274z" />
<glyph unicode="&#x41d;" horiz-adv-x="1245" d="M121 0v1366h274v-543h453v543h276v-1366h-276v582h-453v-582h-274z" />
<glyph unicode="&#x41e;" horiz-adv-x="1273" d="M66 682q0 204 67 363t197.5 251.5t304.5 92.5q175 0 306 -92.5t198 -251.5t67 -363q0 -205 -67 -364t-198 -251t-306 -92q-174 0 -304.5 92t-197.5 251.5t-67 363.5zM348 682q0 -202 76 -332.5t211 -130.5q91 0 158 62t100 165.5t33 235.5q0 204 -77 333.5t-214 129.5 q-91 0 -156.5 -61t-98 -164.5t-32.5 -237.5z" />
<glyph unicode="&#x41f;" horiz-adv-x="1245" d="M121 0v1366h1003v-1366h-276v1124h-453v-1124h-274z" />
<glyph unicode="&#x420;" horiz-adv-x="1091" d="M121 0v1366h504q102 0 184 -35t133 -95.5t78 -138.5t27 -167t-27 -167t-78 -138.5t-133 -95.5t-184 -35h-230v-494h-274zM395 735h197q78 0 126 53t48 142t-48 141.5t-126 52.5h-197v-389z" />
<glyph unicode="&#x421;" horiz-adv-x="1142" d="M66 682q0 206 70 366t201.5 250.5t305.5 90.5q312 0 457 -328l-228 -100q-32 85 -91 134.5t-138 49.5q-136 0 -215.5 -129t-79.5 -334t79.5 -334t215.5 -129q81 0 140.5 54.5t90.5 144.5l228 -99q-143 -344 -459 -344q-174 0 -305.5 90.5t-201.5 250.5t-70 366z" />
<glyph unicode="&#x422;" horiz-adv-x="968" d="M45 1124v242h881v-242h-303v-1124h-275v1124h-303z" />
<glyph unicode="&#x423;" horiz-adv-x="1101" d="M-8 1366h301l258 -666l258 666h301l-469 -1112q-60 -142 -148.5 -210.5t-236.5 -68.5q-73 0 -142.5 21t-115.5 57l86 223q65 -55 143 -55q57 0 91.5 29.5t64.5 93.5l20 53z" />
<glyph unicode="&#x424;" horiz-adv-x="1546" d="M66 682q0 224 146.5 368.5t422.5 174.5v141h276v-141q275 -30 422.5 -174.5t147.5 -368.5q0 -225 -147.5 -370t-422.5 -175v-137h-276v137q-276 30 -422.5 174.5t-146.5 370.5zM348 682q0 -118 71 -194.5t216 -102.5v592q-145 -24 -216 -101t-71 -194zM911 385 q144 26 215.5 103t71.5 194q0 116 -71.5 193.5t-215.5 101.5v-592z" />
<glyph unicode="&#x425;" horiz-adv-x="1132" d="M-4 0l399 698l-377 668h316l231 -457l232 457h317l-377 -666l400 -700h-316l-256 485l-254 -485h-315z" />
<glyph unicode="&#x426;" horiz-adv-x="1267" d="M121 0v1366h274v-1124h455v1124h274v-1124h115v-494h-274v252h-844z" />
<glyph unicode="&#x427;" horiz-adv-x="1146" d="M90 958v408h277v-408q0 -112 52 -169.5t152 -57.5q99 0 181 29v606h274v-1366h-274v520q-114 -31 -220 -31q-110 0 -195.5 35.5t-139 99.5t-80.5 148.5t-27 185.5z" />
<glyph unicode="&#x428;" horiz-adv-x="1716" d="M121 0v1366h274v-1124h326v1124h274v-1124h326v1124h274v-1366h-1474z" />
<glyph unicode="&#x429;" horiz-adv-x="1740" d="M121 0v1366h274v-1124h326v1124h274v-1124h326v1124h274v-1124h115v-494h-274v252h-1315z" />
<glyph unicode="&#x42a;" horiz-adv-x="1316" d="M45 1124v242h578v-494h227q103 0 185 -35t133.5 -95.5t78.5 -138.5t27 -167t-27 -167t-78.5 -138.5t-133.5 -95.5t-185 -35h-502v1124h-303zM623 242h194q80 0 128 52.5t48 141.5t-48 142t-128 53h-194v-389z" />
<glyph unicode="&#x42b;" horiz-adv-x="1550" d="M121 0v1366h274v-494h230q102 0 184 -35t133 -95.5t78 -138.5t27 -167t-27 -167t-78 -138.5t-133 -95.5t-184 -35h-504zM395 242h197q78 0 126 52.5t48 141.5t-48 142t-126 53h-197v-389zM1153 0v1366h277v-1366h-277z" />
<glyph unicode="&#x42c;" horiz-adv-x="1091" d="M121 0v1366h274v-494h230q102 0 184 -35t133 -95.5t78 -138.5t27 -167t-27 -167t-78 -138.5t-133 -95.5t-184 -35h-504zM395 242h197q78 0 126 52.5t48 141.5t-48 142t-126 53h-197v-389z" />
<glyph unicode="&#x42d;" horiz-adv-x="1142" d="M39 319l229 99q29 -89 89 -144t143 -55q118 0 192.5 95.5t95.5 258.5h-509v242h505q-22 152 -96 241t-188 89q-80 0 -139 -49.5t-93 -134.5l-227 100q145 328 457 328q174 0 305.5 -90.5t201.5 -250.5t70 -366t-70 -366t-201.5 -250.5t-305.5 -90.5q-316 0 -459 344z" />
<glyph unicode="&#x42e;" horiz-adv-x="1781" d="M121 0v1366h274v-543h189q35 255 183 410.5t378 155.5q174 0 304.5 -92.5t197.5 -251.5t67 -363t-67 -363.5t-197.5 -251.5t-304.5 -92q-161 0 -284 78t-193.5 214t-87.5 315h-185v-582h-274zM856 682q0 -202 77 -332.5t212 -130.5t212 130.5t77 332.5q0 204 -76.5 333.5 t-212.5 129.5t-212.5 -129.5t-76.5 -333.5z" />
<glyph unicode="&#x42f;" horiz-adv-x="1128" d="M72 0l247 543q-97 32 -167 130.5t-70 260.5q0 190 115 311t301 121h510v-1366h-275v494h-147l-209 -494h-305zM362 930q0 -88 49 -141.5t128 -53.5h194v389h-194q-79 0 -128 -53t-49 -141z" />
<glyph unicode="&#x430;" horiz-adv-x="980" d="M57 303q0 154 89.5 238t215.5 84q79 0 150.5 -31t110.5 -86v129q0 80 -48 126t-135 46q-133 0 -243 -107l-93 168q74 71 176.5 107.5t204.5 36.5q83 0 151 -19.5t121.5 -60t83 -109t29.5 -161.5v-664h-247v98q-40 -57 -112 -90t-149 -33q-124 0 -214.5 88.5t-90.5 239.5z M303 299q0 -71 42.5 -114.5t111.5 -43.5q51 0 96 25.5t70 69.5v126q-25 44 -70 70.5t-96 26.5q-69 0 -111.5 -44.5t-42.5 -115.5z" />
<glyph unicode="&#x431;" horiz-adv-x="1017" d="M59 541q0 254 44.5 404.5t139.5 228t263 106.5q89 15 127.5 34.5t38.5 51.5h250q0 -55 -24 -99.5t-58 -71.5t-85 -48t-90.5 -31t-89.5 -18q-144 -24 -216 -80t-87 -148q98 144 283 144q124 0 216.5 -72.5t137.5 -188t45 -255.5q0 -104 -29 -197.5t-83 -166.5t-141 -116 t-195 -43q-144 0 -246.5 74.5t-151.5 200.5t-49 291zM313 498q0 -131 49.5 -218t143.5 -87q95 0 144.5 86.5t49.5 218.5q0 127 -49.5 213t-144.5 86q-93 0 -143 -86t-50 -213z" />
<glyph unicode="&#x432;" horiz-adv-x="1028" d="M111 0v989h501q149 0 226 -72t77 -182q0 -85 -47 -143.5t-123 -79.5q85 -19 138 -87t53 -157q0 -119 -78 -193.5t-231 -74.5h-516zM356 199h213q56 0 85.5 27t29.5 75q0 45 -30 75t-85 30h-213v-207zM356 604h205q52 0 78.5 25t26.5 67t-26.5 68.5t-78.5 26.5h-205v-187z " />
<glyph unicode="&#x433;" horiz-adv-x="784" d="M111 0v989h639v-215h-394v-774h-245z" />
<glyph unicode="&#x434;" horiz-adv-x="1044" d="M35 197q42 7 66 25.5t45.5 81t33.5 177.5l47 508h686v-774h103v-467h-246v252h-489v-252h-246v449zM326 215h340v559h-215l-25 -301q-14 -172 -100 -258z" />
<glyph unicode="&#x435;" horiz-adv-x="980" d="M59 496q0 144 53 261t155 187t235 70t230.5 -68.5t146.5 -187.5t49 -273v-69h-621q8 -107 70 -174.5t170 -67.5q55 0 115 26t100 70l112 -147q-65 -71 -159 -109.5t-195 -38.5q-209 0 -335 143.5t-126 377.5zM307 584h383q-1 33 -7.5 63.5t-21 61.5t-35.5 54t-54 37.5 t-74 14.5q-49 0 -86.5 -21.5t-59 -56.5t-32.5 -73.5t-13 -79.5z" />
<glyph unicode="&#x436;" horiz-adv-x="1320" d="M6 0l324 545l-314 444h287l234 -348v348h245v-352l236 352h285l-312 -444l324 -545h-289l-205 387l-39 -55v-332h-245v336l-37 51l-205 -387h-289z" />
<glyph unicode="&#x437;" horiz-adv-x="903" d="M27 133l116 148q106 -109 281 -109q82 0 127 32t45 87q0 112 -182 112h-185v193h181q170 0 170 113q0 51 -46.5 79.5t-123.5 28.5q-160 0 -250 -106l-121 145q142 158 364 158q197 0 310.5 -73t113.5 -200q0 -85 -66.5 -151.5t-160.5 -81.5q98 -11 171 -76t73 -162 q0 -131 -113 -213t-301 -82q-261 0 -403 158z" />
<glyph unicode="&#x438;" d="M111 0v989h245v-557l306 557h251v-989h-247v580l-318 -580h-237z" />
<glyph unicode="&#x439;" d="M111 0v989h245v-557l306 557h251v-989h-247v580l-318 -580h-237zM205 1255l112 91q33 -47 84 -75t111 -28q59 0 110.5 27.5t84.5 75.5l112 -91q-55 -72 -134.5 -112.5t-172.5 -40.5q-91 0 -171.5 41t-135.5 112z" />
<glyph unicode="&#x43a;" horiz-adv-x="960" d="M111 0v989h245v-448l301 448h287l-313 -444l323 -545h-288l-205 387l-105 -145v-242h-245z" />
<glyph unicode="&#x43b;" d="M35 -25v207q40 0 65.5 22.5t46.5 89.5t33 187l47 508h686v-989h-247v774h-215l-27 -317q-23 -262 -116 -372t-273 -110z" />
<glyph unicode="&#x43c;" horiz-adv-x="1257" d="M111 0v989h315l203 -551l205 551h313v-989h-244v600l-221 -600h-107l-219 600v-600h-245z" />
<glyph unicode="&#x43d;" d="M111 0v989h245v-368h310v368h247v-989h-247v406h-310v-406h-245z" />
<glyph unicode="&#x43e;" horiz-adv-x="1013" d="M59 496q0 141 50 257t153.5 188.5t243.5 72.5q107 0 193.5 -42t141.5 -114t84 -164.5t29 -197.5q0 -106 -29 -199.5t-84 -165.5t-141.5 -114t-193.5 -42q-106 0 -192 42t-141 114t-84.5 165.5t-29.5 199.5zM315 496q0 -131 48.5 -217t142.5 -86q96 0 145 85.5t49 217.5 q0 131 -49 216t-145 85q-93 0 -142 -85.5t-49 -215.5z" />
<glyph unicode="&#x43f;" d="M111 0v989h802v-989h-247v774h-310v-774h-245z" />
<glyph unicode="&#x440;" horiz-adv-x="1030" d="M111 -377v1366h245v-125q45 72 111 111t139 39q168 0 267.5 -138.5t99.5 -379.5t-99.5 -381t-267.5 -140q-73 0 -139.5 38t-110.5 112v-502h-245zM356 309q25 -49 73.5 -82.5t96.5 -33.5q92 0 142.5 84t50.5 219q0 134 -50.5 217.5t-142.5 83.5q-49 0 -97 -32.5 t-73 -82.5v-373z" />
<glyph unicode="&#x441;" horiz-adv-x="862" d="M59 496q0 228 125.5 373t327.5 145q109 0 188 -37t127 -96l-122 -170q-70 86 -166 86q-104 0 -165 -84.5t-61 -216.5t61 -217.5t165 -85.5q96 0 166 86l122 -170q-109 -134 -315 -134q-202 0 -327.5 146t-125.5 375z" />
<glyph unicode="&#x442;" horiz-adv-x="751" d="M35 774v215h684v-215h-219v-774h-248v774h-217z" />
<glyph unicode="&#x443;" horiz-adv-x="915" d="M-4 989h262l199 -692l200 692h263l-388 -1157q-44 -130 -121.5 -180.5t-203.5 -52.5q-72 0 -119 14l37 217q28 -14 63 -14q84 0 109 71l33 95z" />
<glyph unicode="&#x444;" horiz-adv-x="1505" d="M78 496q0 241 88.5 379.5t239.5 138.5q65 0 124 -38.5t99 -111.5v502h245v-502q41 72 100.5 111t125.5 39q151 0 239 -138t88 -380q0 -241 -88 -381t-239 -140q-67 0 -126.5 38t-99.5 112v-502h-245v502q-39 -73 -98 -111.5t-125 -38.5q-151 0 -239.5 139.5t-88.5 381.5z M328 496q0 -135 42.5 -219t118.5 -84q41 0 80.5 33t59.5 83v371q-20 50 -60.5 83.5t-81.5 33.5q-77 0 -118 -83.5t-41 -217.5zM874 309q22 -49 61.5 -82.5t78.5 -33.5q76 0 120 84.5t44 218.5q0 133 -42 217t-118 84q-41 0 -81.5 -32.5t-62.5 -82.5v-373z" />
<glyph unicode="&#x445;" horiz-adv-x="897" d="M4 0l289 504l-275 485h269l162 -311l159 311h269l-275 -485l291 -504h-268l-176 330l-179 -330h-266z" />
<glyph unicode="&#x446;" horiz-adv-x="1044" d="M111 0v989h245v-774h310v774h247v-774h103v-467h-246v252h-659z" />
<glyph unicode="&#x447;" horiz-adv-x="999" d="M86 604v385h248v-301q0 -76 36.5 -108.5t116.5 -32.5q90 0 154 35v407h248v-989h-248v389q-40 -26 -104.5 -42.5t-135.5 -16.5q-169 0 -242 69t-73 205z" />
<glyph unicode="&#x448;" horiz-adv-x="1468" d="M111 0v989h245v-774h254v774h248v-774h254v774h246v-989h-1247z" />
<glyph unicode="&#x449;" horiz-adv-x="1497" d="M111 0v989h245v-774h254v774h248v-774h254v774h246v-774h110v-467h-247v252h-1110z" />
<glyph unicode="&#x44a;" horiz-adv-x="1118" d="M35 774v215h465v-346h217q169 0 258.5 -91t89.5 -230q0 -137 -91 -229.5t-257 -92.5h-465v774h-217zM500 201h184q61 0 95 33.5t34 87.5q0 53 -34 86.5t-95 33.5h-184v-241z" />
<glyph unicode="&#x44b;" horiz-adv-x="1392" d="M111 0v989h245v-346h217q169 0 260 -91.5t91 -229.5q0 -136 -92.5 -229t-258.5 -93h-462zM356 201h187q61 0 95 33.5t34 87.5q0 53 -34 86.5t-95 33.5h-187v-241zM1036 0v989h246v-989h-246z" />
<glyph unicode="&#x44c;" horiz-adv-x="976" d="M111 0v989h245v-346h217q169 0 260 -91.5t91 -229.5q0 -136 -92.5 -229t-258.5 -93h-462zM356 201h187q61 0 95 33.5t34 87.5q0 53 -34 86.5t-95 33.5h-187v-241z" />
<glyph unicode="&#x44d;" horiz-adv-x="862" d="M37 109l117 153q74 -90 172 -90q86 0 143 62t76 169h-340v191h340q-19 104 -76.5 163.5t-142.5 59.5q-101 0 -172 -90l-117 154q46 58 126 95.5t189 37.5q201 0 326 -145.5t125 -372.5q0 -229 -125 -375t-326 -146q-109 0 -189 38t-126 96z" />
<glyph unicode="&#x44e;" horiz-adv-x="1452" d="M111 0v989h245v-368h152q32 173 145.5 283t290.5 110q107 0 194 -42t142 -114t84 -164.5t29 -197.5q0 -143 -49.5 -259t-153.5 -189t-246 -73q-187 0 -302 121t-138 310h-148v-406h-245zM754 496q0 -132 48.5 -217.5t141.5 -85.5q96 0 145.5 85.5t49.5 217.5 q0 130 -49.5 215.5t-145.5 85.5q-93 0 -141.5 -85.5t-48.5 -215.5z" />
<glyph unicode="&#x44f;" horiz-adv-x="1017" d="M76 0l198 379q-77 26 -131.5 100.5t-54.5 190.5q0 138 92.5 228.5t255.5 90.5h471v-989h-245v346h-150l-162 -346h-274zM338 670q0 -56 34 -89.5t95 -33.5h195v241h-195q-60 0 -94.5 -33t-34.5 -85z" />
<glyph unicode="&#x451;" horiz-adv-x="980" d="M59 496q0 144 53 261t155 187t235 70t230.5 -68.5t146.5 -187.5t49 -273v-69h-621q8 -107 70 -174.5t170 -67.5q55 0 115 26t100 70l112 -147q-65 -71 -159 -109.5t-195 -38.5q-209 0 -335 143.5t-126 377.5zM178 1249q0 55 38.5 93t94.5 38q55 0 93 -38t38 -93 q0 -56 -38 -94.5t-93 -38.5t-94 39t-39 94zM307 584h383q-1 33 -7.5 63.5t-21 61.5t-35.5 54t-54 37.5t-74 14.5q-49 0 -86.5 -21.5t-59 -56.5t-32.5 -73.5t-13 -79.5zM561 1249q0 55 38.5 93t92.5 38q56 0 95.5 -38t39.5 -93t-39.5 -94t-95.5 -39q-54 0 -92.5 39t-38.5 94z " />
<glyph unicode="&#x452;" horiz-adv-x="1040" d="M25 1083v142h102v141h246v-141h268v-142h-268v-223q41 63 121 108.5t170 45.5q134 0 200 -70.5t66 -198.5v-802q0 -166 -78.5 -255t-235.5 -89q-66 0 -107 13.5t-81 45.5l61 186q39 -39 93 -39q100 0 100 138v710q0 144 -129 144q-55 0 -102.5 -36t-77.5 -87v-674h-246 v1083h-102z" />
<glyph unicode="&#x453;" horiz-adv-x="784" d="M111 0v989h639v-215h-394v-774h-245zM322 1139l219 295h219l-275 -295h-163z" />
<glyph unicode="&#x454;" horiz-adv-x="862" d="M59 496q0 228 125.5 373t327.5 145q109 0 188 -37t127 -96l-118 -154q-71 90 -170 90q-88 0 -145.5 -59.5t-76.5 -163.5h342v-191h-342q18 -106 76 -168.5t146 -62.5q100 0 170 90l118 -153q-109 -134 -315 -134q-202 0 -327.5 146t-125.5 375z" />
<glyph unicode="&#x455;" horiz-adv-x="843" d="M35 117l104 172q47 -51 123.5 -86t149.5 -35q69 0 107 28.5t38 75.5q0 33 -27 56.5t-70 39.5t-95.5 32t-104.5 40t-95 56.5t-70 89t-27 131.5q0 126 96.5 211.5t263.5 85.5q200 0 344 -127l-98 -166q-39 44 -104.5 73t-137.5 29q-58 0 -94.5 -27t-36.5 -67q0 -30 27 -52 t70.5 -37.5t96 -31.5t105 -41t96 -59t70.5 -92t27 -133q0 -135 -103 -221.5t-274 -86.5q-119 0 -218 37.5t-163 104.5z" />
<glyph unicode="&#x456;" horiz-adv-x="466" d="M86 1247q0 61 43.5 105.5t103.5 44.5q61 0 104.5 -44t43.5 -106q0 -61 -43 -104t-105 -43q-60 0 -103.5 43t-43.5 104zM111 0v989h245v-989h-245z" />
<glyph unicode="&#x457;" horiz-adv-x="466" d="M-90 1249q0 55 38.5 93t94.5 38q55 0 93 -38t38 -93q0 -56 -38 -94.5t-93 -38.5t-94 39t-39 94zM111 0v989h245v-989h-245zM293 1249q0 55 38.5 93t92.5 38q56 0 95.5 -38t39.5 -93t-39.5 -94t-95.5 -39q-54 0 -92.5 39t-38.5 94z" />
<glyph unicode="&#x458;" horiz-adv-x="466" d="M-143 -342l61 186q39 -39 92 -39q46 0 73.5 34.5t27.5 103.5v1046h245v-1046q0 -166 -77 -255t-234 -89q-66 0 -107 13.5t-81 45.5zM86 1247q0 61 43.5 105.5t103.5 44.5q61 0 104.5 -44t43.5 -106q0 -61 -43 -104t-105 -43q-60 0 -103.5 43t-43.5 104z" />
<glyph unicode="&#x459;" horiz-adv-x="1533" d="M35 -25v207q40 0 65.5 22.5t46.5 89.5t33 187l47 508h686v-346h217q169 0 259 -91t90 -230q0 -137 -91.5 -229.5t-257.5 -92.5h-464v774h-215l-27 -317q-23 -262 -116 -372t-273 -110zM913 201h185q61 0 95 33.5t34 87.5q0 53 -34 86.5t-95 33.5h-185v-241z" />
<glyph unicode="&#x45a;" horiz-adv-x="1525" d="M111 0v989h245v-366h310v366h247v-366h224q166 0 254 -88.5t88 -225.5q0 -132 -89.5 -220.5t-252.5 -88.5h-471v408h-310v-408h-245zM913 201h195q58 0 88.5 29t30.5 79q0 49 -31 79t-88 30h-195v-217z" />
<glyph unicode="&#x45b;" horiz-adv-x="1040" d="M25 1083v142h102v141h248v-141h272v-142h-272v-223q41 63 120 108.5t169 45.5q135 0 200.5 -69t65.5 -197v-748h-246v655q0 142 -131 142q-55 0 -102.5 -36.5t-75.5 -86.5v-674h-248v1083h-102z" />
<glyph unicode="&#x45c;" horiz-adv-x="960" d="M111 0v989h245v-448l301 448h287l-313 -444l323 -545h-288l-205 387l-105 -145v-242h-245zM373 1139l219 295h219l-274 -295h-164z" />
<glyph unicode="&#x45e;" horiz-adv-x="915" d="M-4 989h262l199 -692l200 692h263l-388 -1157q-44 -130 -121.5 -180.5t-203.5 -52.5q-72 0 -119 14l37 217q28 -14 63 -14q84 0 109 71l33 95zM150 1255l112 91q33 -47 84 -75t111 -28q59 0 110 27.5t84 75.5l113 -91q-55 -72 -134.5 -112.5t-172.5 -40.5 q-91 0 -171.5 41t-135.5 112z" />
<glyph unicode="&#x45f;" d="M111 0v989h245v-774h310v774h247v-989h-278v-258h-246v258h-278z" />
<glyph unicode="&#x490;" horiz-adv-x="968" d="M121 0v1366h508v252h274v-494h-508v-1124h-274z" />
<glyph unicode="&#x491;" horiz-adv-x="784" d="M111 0v989h393v258h246v-473h-394v-774h-245z" />
<glyph unicode="&#x2000;" horiz-adv-x="888" />
<glyph unicode="&#x2001;" horiz-adv-x="1776" />
<glyph unicode="&#x2002;" horiz-adv-x="888" />
<glyph unicode="&#x2003;" horiz-adv-x="1776" />
<glyph unicode="&#x2004;" horiz-adv-x="592" />
<glyph unicode="&#x2005;" horiz-adv-x="444" />
<glyph unicode="&#x2006;" horiz-adv-x="296" />
<glyph unicode="&#x2007;" horiz-adv-x="296" />
<glyph unicode="&#x2008;" horiz-adv-x="222" />
<glyph unicode="&#x2009;" horiz-adv-x="355" />
<glyph unicode="&#x200a;" horiz-adv-x="98" />
<glyph unicode="&#x2010;" horiz-adv-x="552" d="M61 391v209h431v-209h-431z" />
<glyph unicode="&#x2011;" horiz-adv-x="552" d="M61 391v209h431v-209h-431z" />
<glyph unicode="&#x2012;" horiz-adv-x="552" d="M61 391v209h431v-209h-431z" />
<glyph unicode="&#x2013;" horiz-adv-x="1079" d="M61 391v209h957v-209h-957z" />
<glyph unicode="&#x2014;" horiz-adv-x="1509" d="M61 391v209h1387v-209h-1387z" />
<glyph unicode="&#x2018;" horiz-adv-x="518" d="M86 1020q0 108 55 204t150 162l108 -86q-51 -29 -97 -85t-58 -107q12 4 39 4q56 0 94.5 -39.5t38.5 -101.5q0 -63 -46.5 -109.5t-109.5 -46.5q-73 0 -123.5 55.5t-50.5 149.5z" />
<glyph unicode="&#x2019;" horiz-adv-x="518" d="M100 1231q0 64 45.5 109.5t108.5 45.5q73 0 123.5 -54.5t50.5 -147.5q0 -110 -55 -206.5t-150 -162.5l-106 86q51 30 96 86.5t57 108.5q-18 -6 -37 -6q-58 0 -95.5 39.5t-37.5 101.5z" />
<glyph unicode="&#x201a;" horiz-adv-x="516" d="M98 139q0 63 46.5 109.5t109.5 46.5q72 0 123 -55t51 -148q0 -110 -55 -206.5t-150 -164.5l-106 89q51 28 96 84.5t57 109.5q-9 -6 -37 -6q-58 0 -96.5 39.5t-38.5 101.5z" />
<glyph unicode="&#x201c;" horiz-adv-x="921" d="M90 1020q0 108 55 204t148 162l108 -86q-51 -29 -97 -85t-58 -107q12 4 39 4q56 0 94.5 -39.5t38.5 -101.5q0 -63 -45.5 -109.5t-108.5 -46.5q-73 0 -123.5 55.5t-50.5 149.5zM494 1020q0 108 55 204t149 162l109 -86q-52 -29 -99 -85t-57 -107q12 4 39 4 q56 0 93.5 -39.5t37.5 -101.5q0 -63 -45 -109.5t-108 -46.5q-73 0 -123.5 55.5t-50.5 149.5z" />
<glyph unicode="&#x201d;" horiz-adv-x="921" d="M100 1231q0 64 45.5 109.5t108.5 45.5q73 0 123.5 -54.5t50.5 -147.5q0 -110 -55 -206.5t-150 -162.5l-106 86q51 30 96 86.5t57 108.5q-18 -6 -37 -6q-58 0 -95.5 39.5t-37.5 101.5zM504 1231q0 65 45 110t110 45q73 0 124 -54.5t51 -147.5q0 -109 -55.5 -205.5 t-149.5 -163.5l-109 86q52 31 98 87t58 108q-18 -6 -39 -6q-56 0 -94.5 39.5t-38.5 101.5z" />
<glyph unicode="&#x201e;" horiz-adv-x="921" d="M98 139q0 63 46.5 109.5t109.5 46.5q72 0 123 -55t51 -148q0 -110 -55 -206.5t-150 -164.5l-106 89q51 28 96 84.5t57 109.5q-9 -6 -37 -6q-58 0 -96.5 39.5t-38.5 101.5zM504 139q0 63 45 109.5t108 46.5q73 0 125 -55t52 -148q0 -109 -55.5 -206t-149.5 -165l-109 89 q51 29 97.5 85.5t58.5 108.5q-9 -6 -39 -6q-56 0 -94.5 39.5t-38.5 101.5z" />
<glyph unicode="&#x2022;" horiz-adv-x="733" d="M129 496q0 100 70 169.5t170 69.5t169.5 -69.5t69.5 -169.5q0 -98 -70 -168t-169 -70q-100 0 -170 70t-70 168z" />
<glyph unicode="&#x2026;" horiz-adv-x="1548" d="M100 135q0 65 46 112.5t110 47.5q66 0 113 -47.5t47 -112.5q0 -63 -47 -110.5t-113 -47.5q-64 0 -110 47t-46 111zM616 135q0 65 47 112.5t111 47.5t111 -47.5t47 -112.5q0 -63 -47 -110.5t-111 -47.5t-111 47.5t-47 110.5zM1133 135q0 65 46.5 112.5t110.5 47.5 t111 -47.5t47 -112.5q0 -63 -47 -110.5t-111 -47.5t-110.5 47.5t-46.5 110.5z" />
<glyph unicode="&#x202f;" horiz-adv-x="355" />
<glyph unicode="&#x2039;" horiz-adv-x="587" d="M61 498l256 362h209l-256 -362l256 -369h-209z" />
<glyph unicode="&#x203a;" horiz-adv-x="587" d="M61 129l256 369l-256 362h209l256 -362l-256 -369h-209z" />
<glyph unicode="&#x205f;" horiz-adv-x="444" />
<glyph unicode="&#x20ac;" horiz-adv-x="1181" d="M37 465v151h72q-3 30 -3 66q0 12 1.5 36t1.5 36h-72v149h92q50 223 196.5 354.5t358.5 131.5q312 0 457 -328l-228 -100q-32 85 -91 134.5t-138 49.5q-95 0 -163 -64.5t-103 -177.5h354v-149h-381q-2 -25 -2 -72q0 -46 2 -66h381v-151h-354q33 -115 102 -180.5t164 -65.5 q81 0 140.5 54.5t90.5 144.5l228 -99q-143 -344 -459 -344q-213 0 -359 132.5t-196 357.5h-92z" />
<glyph unicode="&#x2122;" horiz-adv-x="847" d="M35 1313v53h270v-53h-106v-398h-58v398h-106zM379 915v451h88l111 -324l110 324h88v-451h-57v373l-133 -373h-17l-133 373v-373h-57z" />
<glyph unicode="&#x25fc;" horiz-adv-x="993" d="M0 0v993h993v-993h-993z" />
</font>
</defs>
</svg>
